<svg xmlns="http://www.w3.org/2000/svg" xmlns:xlink="http://www.w3.org/1999/xlink" width="300" zoomAndPan="magnify" viewBox="0 0 224.87999 225" height="300" preserveAspectRatio="xMidYMid meet" version="1.0"><defs><clipPath id="3a693c2981"><path d="M 54 52.316406 L 178 52.316406 L 178 173 L 54 173 Z M 54 52.316406 " clip-rule="nonzero"/></clipPath></defs><g clip-path="url(#3a693c2981)"><path fill="#3f69fb" d="M 167.9375 136.363281 C 168.222656 136.320312 168.503906 136.273438 168.785156 136.21875 C 170.390625 135.910156 171.769531 135.410156 172.921875 134.726562 C 174.078125 134.042969 174.578125 133.074219 174.421875 131.824219 C 174.414062 131.746094 174.402344 131.671875 174.394531 131.597656 C 175.09375 131.34375 175.738281 131.046875 176.324219 130.699219 C 177.476562 130.015625 177.976562 129.046875 177.824219 127.796875 C 177.425781 124.558594 176.1875 121.808594 174.109375 119.554688 C 172.027344 117.296875 169.550781 115.613281 166.671875 114.5 C 163.796875 113.382812 160.722656 112.871094 157.457031 112.960938 C 154.1875 113.054688 151.167969 113.820312 148.398438 115.257812 C 146.679688 116.148438 145.1875 117.195312 143.929688 118.394531 C 143.65625 118.65625 143.398438 118.917969 143.148438 119.1875 C 143.203125 118.835938 143.25 118.484375 143.289062 118.136719 C 144.195312 110.613281 142.421875 104.136719 137.960938 98.707031 C 133.226562 92.941406 126.589844 89.6875 118.066406 88.949219 C 112.175781 88.429688 106.886719 89.695312 102.199219 92.746094 C 102.144531 92.199219 101.78125 91.710938 101.226562 91.53125 C 101.148438 91.503906 101.066406 91.488281 100.988281 91.476562 C 101.125 89.996094 101.050781 88.476562 100.742188 86.914062 C 99.855469 82.378906 97.382812 78.824219 93.328125 76.25 C 91.320312 74.984375 88.90625 73.996094 86.082031 73.289062 C 86.546875 73.109375 87.007812 72.917969 87.460938 72.714844 C 88.953125 72.042969 90.179688 71.238281 91.144531 70.304688 C 91.855469 69.617188 92.1875 68.863281 92.136719 68.039062 C 93.066406 67.515625 93.871094 66.929688 94.546875 66.277344 C 95.511719 65.34375 95.777344 64.289062 95.339844 63.105469 C 94.210938 60.046875 92.375 57.660156 89.832031 55.945312 C 87.292969 54.234375 84.492188 53.167969 81.4375 52.75 C 78.382812 52.328125 75.273438 52.542969 72.117188 53.386719 C 68.957031 54.238281 66.195312 55.679688 63.828125 57.71875 C 62.25 59.078125 60.976562 60.554688 59.996094 62.136719 C 56.238281 65.546875 54.292969 69.644531 54.164062 74.4375 C 54.085938 78.125 54.621094 81.046875 55.773438 83.199219 C 56.925781 85.355469 58.425781 87.011719 60.28125 88.164062 C 61.128906 88.710938 61.984375 89.175781 62.855469 89.566406 C 62.347656 89.765625 61.859375 89.988281 61.402344 90.246094 C 59.519531 91.257812 58.582031 92.5 58.585938 93.976562 C 58.390625 94.070312 58.191406 94.167969 58 94.273438 C 55.671875 95.527344 54.789062 97.132812 55.351562 99.089844 C 56.625 103.230469 59.320312 106.546875 63.441406 109.046875 C 68.230469 111.992188 73.742188 112.9375 79.972656 111.878906 C 83.152344 111.339844 85.960938 110.34375 88.398438 108.898438 C 87.46875 111.003906 86.808594 113.242188 86.421875 115.621094 C 85.269531 122.796875 86.835938 129.335938 91.121094 135.242188 C 95.410156 141.148438 101.289062 144.726562 108.753906 145.972656 C 116.496094 147.269531 123.292969 145.683594 129.132812 141.214844 C 131.550781 139.367188 133.570312 137.273438 135.195312 134.941406 C 135.105469 136.480469 135.21875 137.859375 135.542969 139.078125 C 136.167969 141.441406 137.25 143.402344 138.789062 144.953125 C 139.160156 145.339844 139.539062 145.703125 139.925781 146.046875 C 139.460938 146.121094 139.007812 146.21875 138.566406 146.339844 C 136.015625 147.023438 134.789062 148.378906 134.882812 150.414062 C 134.882812 150.425781 134.886719 150.4375 134.886719 150.453125 C 132.527344 151.15625 131.390625 152.484375 131.484375 154.441406 C 131.773438 158.765625 133.636719 162.621094 137.074219 166.003906 C 141.054688 169.980469 146.199219 172.175781 152.507812 172.59375 C 158.8125 173.003906 164.128906 171.398438 168.457031 167.769531 C 170 166.480469 171.226562 165.050781 172.152344 163.484375 C 175.621094 160.460938 177.445312 156.703125 177.617188 152.214844 C 177.792969 147.59375 176.203125 143.5625 172.851562 140.121094 C 171.511719 138.753906 169.875 137.503906 167.9375 136.363281 Z M 109.699219 114.578125 C 109.757812 114.207031 109.84375 113.851562 109.949219 113.507812 C 111.175781 112.859375 112.539062 112.660156 114.042969 112.910156 C 116.09375 113.257812 117.65625 114.132812 118.726562 115.535156 C 119.800781 116.933594 120.175781 118.628906 119.851562 120.621094 C 119.789062 121 119.699219 121.367188 119.582031 121.71875 C 118.894531 122.058594 118.136719 122.273438 117.304688 122.359375 C 115 122.636719 113.0625 121.949219 111.496094 120.292969 C 109.929688 118.636719 109.332031 116.730469 109.699219 114.578125 Z M 109.699219 114.578125 " fill-opacity="1" fill-rule="nonzero"/></g><path fill="#fbea49" d="M 54.054688 111.046875 L 48.320312 111.34375 C 47.460938 111.386719 46.777344 110.621094 46.910156 109.765625 L 48.417969 100.117188 C 48.597656 98.976562 47.367188 98.140625 46.378906 98.734375 L 20.328125 114.320312 C 19.003906 115.113281 19.808594 117.164062 21.320312 116.828125 L 35.628906 113.644531 C 36.570312 113.433594 37.421875 114.246094 37.261719 115.203125 L 35.890625 123.421875 C 35.691406 124.601562 36.992188 125.445312 37.984375 124.789062 L 54.871094 113.550781 C 56.027344 112.78125 55.433594 110.976562 54.054688 111.046875 Z M 204.601562 100.738281 C 205.550781 99.679688 204.289062 98.109375 203.058594 98.8125 L 178.902344 112.664062 C 177.984375 113.1875 178.089844 114.550781 179.082031 114.925781 L 187.425781 118.074219 C 188.167969 118.351562 188.46875 119.246094 188.042969 119.917969 L 185.21875 124.382812 C 184.535156 125.457031 185.703125 126.75 186.835938 126.171875 L 203.398438 117.699219 C 204.371094 117.203125 204.285156 115.78125 203.257812 115.40625 L 196.109375 112.792969 C 195.277344 112.488281 195.015625 111.4375 195.605469 110.777344 Z M 204.601562 100.738281 " fill-opacity="1" fill-rule="nonzero"/><path fill="#ffffff" d="M 97.273438 87.699219 C 97.199219 86.273438 96.714844 84.941406 96.035156 83.828125 C 95.363281 82.703125 94.488281 81.773438 93.480469 81.054688 C 92.976562 80.695312 92.4375 80.390625 91.859375 80.148438 C 91.570312 80.027344 91.273438 79.925781 90.964844 79.839844 C 90.652344 79.75 90.339844 79.699219 89.976562 79.65625 C 89.851562 79.644531 89.710938 79.652344 89.578125 79.6875 C 89.035156 79.84375 88.722656 80.414062 88.875 80.960938 L 88.933594 81.152344 C 89.011719 81.429688 89.128906 81.71875 89.242188 81.972656 C 89.355469 82.238281 89.476562 82.484375 89.597656 82.726562 C 89.835938 83.210938 90.085938 83.664062 90.339844 84.097656 C 90.84375 84.957031 91.359375 85.730469 91.84375 86.46875 C 92.328125 87.207031 92.761719 87.898438 93.164062 88.613281 C 93.363281 88.972656 93.554688 89.339844 93.738281 89.753906 C 93.917969 90.164062 94.078125 90.613281 94.265625 91.15625 L 94.320312 91.3125 C 94.371094 91.460938 94.460938 91.601562 94.585938 91.714844 C 94.992188 92.097656 95.632812 92.078125 96.011719 91.667969 C 96.488281 91.152344 96.820312 90.511719 97.035156 89.828125 C 97.234375 89.140625 97.304688 88.414062 97.273438 87.699219 Z M 135.308594 126.730469 C 135.277344 126.4375 135.222656 126.144531 135.152344 125.851562 C 135.085938 125.554688 134.980469 125.269531 134.847656 124.953125 C 134.804688 124.847656 134.746094 124.746094 134.667969 124.664062 C 134.289062 124.226562 133.632812 124.183594 133.199219 124.566406 L 133.046875 124.699219 C 132.839844 124.882812 132.644531 125.101562 132.472656 125.300781 C 132.296875 125.507812 132.136719 125.710938 131.984375 125.917969 C 131.675781 126.320312 131.40625 126.722656 131.15625 127.117188 C 130.660156 127.90625 130.25 128.667969 129.875 129.390625 C 129.492188 130.105469 129.152344 130.773438 128.789062 131.390625 C 128.605469 131.699219 128.421875 132.023438 128.191406 132.335938 C 127.960938 132.65625 127.683594 132.972656 127.316406 133.359375 L 127.171875 133.515625 C 127.078125 133.613281 127.007812 133.730469 126.957031 133.863281 C 126.765625 134.394531 127.035156 134.980469 127.5625 135.171875 C 128.199219 135.40625 128.90625 135.4375 129.59375 135.328125 C 130.289062 135.21875 130.945312 134.945312 131.53125 134.597656 C 132.71875 133.890625 133.578125 132.871094 134.195312 131.816406 C 134.804688 130.753906 135.175781 129.621094 135.304688 128.472656 C 135.367188 127.894531 135.371094 127.316406 135.308594 126.730469 Z M 175.8125 150.128906 C 175.558594 149.515625 175.230469 148.941406 174.816406 148.421875 C 174.609375 148.167969 174.382812 147.921875 174.128906 147.699219 C 174.007812 147.589844 173.871094 147.480469 173.730469 147.378906 L 173.511719 147.234375 C 173.4375 147.179688 173.367188 147.144531 173.265625 147.078125 C 173.253906 147.066406 173.234375 147.058594 173.21875 147.046875 C 172.851562 146.839844 172.386719 146.96875 172.175781 147.339844 L 171.753906 148.089844 C 171.730469 148.140625 171.726562 148.21875 171.71875 148.285156 L 171.695312 148.492188 L 171.667969 148.894531 L 171.621094 149.660156 L 171.550781 151.0625 C 171.503906 151.949219 171.464844 152.75 171.398438 153.558594 C 171.367188 153.964844 171.324219 154.367188 171.269531 154.785156 C 171.222656 155.203125 171.15625 155.625 171.085938 156.074219 C 171.015625 156.523438 170.9375 156.992188 170.847656 157.492188 C 170.8125 157.746094 170.75 157.996094 170.714844 158.269531 C 170.667969 158.535156 170.625 158.8125 170.597656 159.117188 L 170.589844 159.222656 C 170.578125 159.382812 170.597656 159.546875 170.664062 159.703125 C 170.882812 160.234375 171.484375 160.484375 172.015625 160.265625 C 173.21875 159.765625 174.171875 158.875 174.929688 157.808594 C 175.296875 157.269531 175.609375 156.679688 175.839844 156.046875 C 176.082031 155.421875 176.238281 154.761719 176.320312 154.085938 C 176.488281 152.742188 176.316406 151.359375 175.8125 150.128906 Z M 172.109375 124.394531 C 171.960938 123.460938 171.671875 122.546875 171.246094 121.6875 C 170.839844 120.8125 170.28125 120.003906 169.644531 119.246094 C 168.992188 118.503906 168.242188 117.839844 167.421875 117.261719 C 166.59375 116.695312 165.699219 116.242188 164.769531 115.886719 C 162.914062 115.175781 160.933594 114.929688 159.042969 115.101562 C 158.09375 115.183594 157.167969 115.371094 156.273438 115.664062 C 155.828125 115.8125 155.386719 115.980469 154.964844 116.1875 C 154.75 116.289062 154.539062 116.398438 154.332031 116.519531 C 154.117188 116.640625 153.933594 116.761719 153.703125 116.921875 C 153.53125 117.046875 153.394531 117.226562 153.335938 117.445312 C 153.191406 117.953125 153.488281 118.480469 153.992188 118.625 L 154.203125 118.679688 C 154.378906 118.734375 154.605469 118.757812 154.804688 118.796875 L 155.417969 118.894531 L 156.613281 119.082031 C 157.398438 119.210938 158.160156 119.335938 158.898438 119.476562 C 160.371094 119.769531 161.761719 120.089844 163.070312 120.554688 C 163.726562 120.785156 164.363281 121.050781 164.984375 121.351562 C 165.605469 121.660156 166.21875 121.992188 166.820312 122.386719 C 168.039062 123.160156 169.191406 124.144531 170.503906 125.253906 L 170.542969 125.289062 C 170.75 125.460938 171.027344 125.546875 171.3125 125.5 C 171.835938 125.417969 172.195312 124.921875 172.109375 124.394531 Z M 137.632812 109.984375 C 137.621094 109.648438 137.609375 109.3125 137.578125 108.980469 C 137.542969 108.644531 137.496094 108.308594 137.449219 107.976562 C 137.410156 107.640625 137.339844 107.304688 137.261719 106.976562 C 137.183594 106.644531 137.121094 106.308594 137.023438 105.980469 C 136.648438 104.664062 136.105469 103.382812 135.4375 102.171875 C 134.75 100.96875 133.917969 99.851562 132.988281 98.835938 C 132.0625 97.816406 131.015625 96.921875 129.90625 96.148438 C 128.796875 95.375 127.613281 94.726562 126.394531 94.203125 C 125.175781 93.675781 123.914062 93.277344 122.628906 93.011719 C 121.984375 92.882812 121.339844 92.777344 120.683594 92.722656 C 120.359375 92.691406 120.03125 92.671875 119.699219 92.664062 C 119.363281 92.660156 119.050781 92.664062 118.683594 92.6875 C 118.390625 92.710938 118.113281 92.867188 117.953125 93.136719 C 117.683594 93.578125 117.820312 94.160156 118.261719 94.429688 L 118.363281 94.488281 C 118.59375 94.628906 118.875 94.773438 119.128906 94.921875 L 119.90625 95.355469 C 120.425781 95.640625 120.933594 95.9375 121.433594 96.234375 C 122.433594 96.828125 123.40625 97.433594 124.339844 98.0625 C 126.195312 99.332031 127.914062 100.691406 129.386719 102.242188 C 130.121094 103.019531 130.800781 103.839844 131.421875 104.707031 C 132.027344 105.582031 132.59375 106.5 133.085938 107.476562 C 134.078125 109.429688 134.777344 111.589844 135.449219 113.941406 L 135.457031 113.972656 C 135.550781 114.292969 135.808594 114.550781 136.152344 114.628906 C 136.65625 114.742188 137.15625 114.421875 137.269531 113.914062 C 137.339844 113.597656 137.394531 113.273438 137.449219 112.949219 C 137.496094 112.628906 137.566406 112.300781 137.578125 111.972656 C 137.621094 111.3125 137.671875 110.648438 137.632812 109.984375 Z M 90.136719 62.234375 C 90.035156 62 89.917969 61.773438 89.800781 61.542969 C 89.679688 61.316406 89.558594 61.089844 89.410156 60.878906 C 89.269531 60.664062 89.117188 60.453125 88.96875 60.242188 C 88.816406 60.03125 88.636719 59.84375 88.46875 59.644531 C 88.300781 59.441406 88.125 59.246094 87.933594 59.070312 C 87.746094 58.882812 87.554688 58.703125 87.359375 58.527344 C 86.949219 58.195312 86.539062 57.855469 86.085938 57.574219 C 85.644531 57.277344 85.179688 57.019531 84.699219 56.777344 C 84.214844 56.5625 83.730469 56.328125 83.222656 56.167969 C 82.722656 55.980469 82.207031 55.855469 81.691406 55.726562 L 80.914062 55.578125 C 80.652344 55.527344 80.394531 55.5 80.132812 55.46875 C 78.046875 55.226562 75.960938 55.421875 74.023438 55.996094 C 73.058594 56.277344 72.121094 56.648438 71.234375 57.117188 C 70.792969 57.351562 70.355469 57.601562 69.941406 57.890625 C 69.734375 58.03125 69.527344 58.183594 69.328125 58.339844 C 69.125 58.503906 68.941406 58.660156 68.730469 58.859375 C 68.5625 59.023438 68.449219 59.25 68.433594 59.503906 C 68.40625 60.035156 68.808594 60.484375 69.335938 60.511719 L 69.496094 60.519531 C 69.703125 60.53125 69.945312 60.515625 70.167969 60.511719 L 70.847656 60.480469 L 72.179688 60.417969 C 73.058594 60.378906 73.914062 60.335938 74.753906 60.3125 C 75.59375 60.289062 76.417969 60.277344 77.230469 60.289062 C 78.039062 60.300781 78.835938 60.34375 79.617188 60.410156 C 80.007812 60.441406 80.394531 60.5 80.785156 60.546875 C 81.164062 60.613281 81.554688 60.664062 81.929688 60.75 C 82.6875 60.902344 83.441406 61.085938 84.1875 61.347656 C 84.570312 61.453125 84.925781 61.621094 85.3125 61.75 C 85.671875 61.921875 86.070312 62.054688 86.4375 62.246094 C 87.207031 62.582031 87.9375 63.023438 88.773438 63.441406 L 88.84375 63.480469 C 89.089844 63.601562 89.382812 63.613281 89.648438 63.496094 C 90.132812 63.28125 90.351562 62.71875 90.136719 62.234375 Z M 90.136719 62.234375 " fill-opacity="1" fill-rule="nonzero"/><path fill="#000000" d="M 143.929688 118.394531 C 143.75 118.265625 143.542969 118.175781 143.3125 118.140625 C 143.304688 118.140625 143.296875 118.136719 143.289062 118.136719 C 142.523438 118.027344 141.816406 118.558594 141.695312 119.324219 C 141.683594 119.394531 140.566406 126.402344 137.515625 129.988281 C 137.007812 130.585938 137.078125 131.484375 137.671875 131.996094 C 137.699219 132.015625 137.722656 132.039062 137.75 132.054688 C 137.996094 132.238281 138.28125 132.332031 138.566406 132.335938 L 138.59375 132.335938 C 138.992188 132.335938 139.390625 132.167969 139.671875 131.839844 C 143.238281 127.644531 144.445312 120.082031 144.496094 119.765625 C 144.578125 119.21875 144.34375 118.699219 143.929688 118.394531 Z M 159.046875 150.292969 C 158.875 149.738281 158.246094 149.199219 157.160156 148.679688 C 154.566406 147.433594 151.953125 146.378906 149.324219 145.519531 C 146.6875 144.660156 144.3125 143.132812 142.1875 140.925781 C 140.648438 139.375 139.570312 137.414062 138.945312 135.050781 C 138.722656 134.222656 138.597656 133.316406 138.566406 132.335938 C 138.554688 131.875 138.5625 131.402344 138.59375 130.910156 C 138.324219 131.300781 138.042969 131.683594 137.75 132.054688 C 136.289062 133.933594 134.550781 135.644531 132.535156 137.1875 C 126.691406 141.65625 119.898438 143.242188 112.152344 141.945312 C 104.6875 140.695312 98.808594 137.117188 94.523438 131.214844 C 90.234375 125.308594 88.667969 118.769531 89.820312 111.589844 C 90.164062 109.472656 90.726562 107.464844 91.496094 105.5625 C 91.675781 105.644531 91.867188 105.6875 92.066406 105.6875 C 92.226562 105.6875 92.386719 105.660156 92.542969 105.605469 C 98.847656 103.355469 102.007812 93.730469 102.140625 93.320312 C 102.199219 93.128906 102.21875 92.933594 102.199219 92.746094 C 102.144531 92.199219 101.78125 91.710938 101.226562 91.53125 C 101.148438 91.503906 101.066406 91.488281 100.988281 91.476562 C 100.320312 91.378906 99.660156 91.777344 99.445312 92.445312 C 99.414062 92.53125 96.582031 101.148438 91.59375 102.921875 C 90.859375 103.1875 90.472656 104 90.734375 104.738281 C 90.804688 104.949219 90.925781 105.128906 91.074219 105.273438 C 88.808594 106.5 86.242188 107.363281 83.371094 107.851562 C 77.140625 108.910156 71.632812 107.964844 66.839844 105.015625 C 62.722656 102.519531 60.023438 99.199219 58.75 95.0625 C 58.640625 94.6875 58.585938 94.324219 58.585938 93.976562 C 58.390625 94.070312 58.191406 94.167969 58 94.273438 C 55.671875 95.527344 54.789062 97.132812 55.351562 99.089844 C 56.625 103.230469 59.320312 106.546875 63.441406 109.046875 C 68.230469 111.992188 73.742188 112.9375 79.972656 111.878906 C 83.152344 111.339844 85.960938 110.34375 88.398438 108.898438 C 87.46875 111.003906 86.808594 113.242188 86.421875 115.621094 C 85.269531 122.796875 86.835938 129.335938 91.121094 135.242188 C 95.410156 141.148438 101.289062 144.726562 108.753906 145.972656 C 116.496094 147.269531 123.292969 145.683594 129.132812 141.214844 C 131.550781 139.367188 133.570312 137.273438 135.195312 134.941406 C 135.105469 136.480469 135.21875 137.859375 135.542969 139.078125 C 136.167969 141.441406 137.25 143.402344 138.789062 144.953125 C 139.160156 145.339844 139.539062 145.703125 139.925781 146.046875 C 140.65625 145.925781 141.417969 145.867188 142.21875 145.871094 C 143.519531 145.871094 144.753906 145.957031 145.921875 146.125 C 147.832031 146.445312 149.515625 146.957031 150.976562 147.667969 C 152.4375 148.378906 153.203125 149.175781 153.273438 150.050781 C 153.269531 150.21875 153.300781 150.394531 153.367188 150.574219 C 153.527344 151.199219 153.945312 151.714844 154.621094 152.113281 C 155.421875 152.609375 156.4375 152.722656 157.664062 152.457031 C 158.894531 152.195312 159.351562 151.472656 159.046875 150.292969 Z M 174.421875 131.824219 C 174.414062 131.746094 174.402344 131.671875 174.394531 131.597656 C 173.710938 131.839844 172.976562 132.039062 172.183594 132.191406 C 170.578125 132.5 168.960938 132.664062 167.332031 132.679688 C 165.703125 132.695312 164.492188 132.652344 163.695312 132.542969 C 163.199219 132.511719 162.78125 132.304688 162.433594 131.9375 C 162.003906 131.503906 161.816406 131.078125 161.875 130.652344 C 161.929688 130.230469 161.757812 129.796875 161.355469 129.34375 C 160.339844 128.238281 158.835938 128.15625 156.839844 129.09375 C 154.84375 130.035156 155.429688 131.117188 158.601562 132.34375 C 158.9375 132.472656 159.308594 132.613281 159.714844 132.761719 C 160.121094 132.914062 160.539062 133.0625 160.96875 133.207031 C 163.613281 134.136719 165.933594 135.1875 167.9375 136.363281 C 168.222656 136.320312 168.503906 136.273438 168.785156 136.21875 C 170.390625 135.910156 171.769531 135.410156 172.921875 134.726562 C 174.078125 134.042969 174.578125 133.074219 174.421875 131.824219 Z M 171.859375 163.742188 C 167.527344 167.371094 162.210938 168.976562 155.90625 168.5625 C 149.601562 168.152344 144.457031 165.957031 140.472656 161.976562 C 137.046875 158.605469 135.1875 154.761719 134.886719 150.453125 C 132.527344 151.15625 131.390625 152.484375 131.484375 154.441406 C 131.773438 158.765625 133.636719 162.621094 137.074219 166.003906 C 141.054688 169.980469 146.199219 172.175781 152.507812 172.59375 C 158.8125 173.003906 164.128906 171.398438 168.457031 167.769531 C 170 166.480469 171.226562 165.050781 172.152344 163.484375 C 172.054688 163.570312 171.960938 163.65625 171.859375 163.742188 Z M 122.125 111.507812 C 121.054688 110.105469 119.496094 109.230469 117.445312 108.882812 C 115.507812 108.558594 113.800781 108.980469 112.328125 110.148438 C 111.15625 111.078125 110.367188 112.199219 109.949219 113.507812 C 111.175781 112.859375 112.539062 112.660156 114.042969 112.910156 C 116.09375 113.257812 117.65625 114.132812 118.726562 115.535156 C 119.800781 116.933594 120.175781 118.628906 119.851562 120.621094 C 119.789062 121 119.699219 121.367188 119.582031 121.71875 C 120.207031 121.410156 120.773438 121 121.28125 120.480469 C 122.339844 119.394531 122.996094 118.097656 123.25 116.59375 C 123.574219 114.601562 123.199219 112.90625 122.125 111.507812 Z M 92.136719 68.039062 C 91.738281 68.269531 91.3125 68.484375 90.859375 68.6875 C 89.371094 69.359375 87.832031 69.894531 86.253906 70.289062 C 84.671875 70.683594 83.480469 70.917969 82.683594 70.996094 C 82.191406 71.078125 81.734375 70.976562 81.316406 70.699219 C 80.796875 70.378906 80.515625 70.007812 80.476562 69.582031 C 80.433594 69.15625 80.164062 68.769531 79.667969 68.425781 C 78.429688 67.582031 76.945312 67.851562 75.21875 69.230469 C 73.492188 70.609375 74.3125 71.527344 77.679688 71.984375 C 78.035156 72.03125 78.429688 72.082031 78.859375 72.132812 C 79.289062 72.1875 79.730469 72.234375 80.183594 72.273438 C 82.316406 72.496094 84.28125 72.835938 86.082031 73.289062 C 86.546875 73.109375 87.007812 72.917969 87.460938 72.714844 C 88.953125 72.042969 90.179688 71.238281 91.144531 70.304688 C 91.855469 69.617188 92.1875 68.863281 92.136719 68.039062 Z M 82.234375 89.34375 C 81.9375 88.84375 81.203125 88.464844 80.027344 88.214844 C 77.21875 87.601562 74.433594 87.179688 71.675781 86.953125 C 68.914062 86.726562 66.25 85.789062 63.679688 84.136719 C 61.824219 82.980469 60.324219 81.328125 59.171875 79.175781 C 58.019531 77.019531 57.484375 74.097656 57.5625 70.410156 C 57.644531 67.375 58.457031 64.621094 59.996094 62.136719 C 56.238281 65.546875 54.292969 69.644531 54.164062 74.4375 C 54.085938 78.125 54.621094 81.046875 55.773438 83.199219 C 56.925781 85.355469 58.425781 87.011719 60.28125 88.164062 C 61.128906 88.710938 61.984375 89.175781 62.855469 89.566406 C 63.480469 89.316406 64.140625 89.105469 64.839844 88.941406 C 66.109375 88.640625 67.328125 88.433594 68.503906 88.332031 C 70.433594 88.199219 72.191406 88.308594 73.777344 88.664062 C 75.363281 89.015625 76.289062 89.609375 76.5625 90.449219 C 76.59375 90.613281 76.664062 90.773438 76.773438 90.933594 C 77.070312 91.507812 77.59375 91.910156 78.34375 92.144531 C 79.238281 92.4375 80.253906 92.3125 81.386719 91.773438 C 82.519531 91.234375 82.800781 90.425781 82.234375 89.34375 Z M 82.234375 89.34375 " fill-opacity="1" fill-rule="nonzero"/><path fill="#d009ca" d="M 70.96875 118.605469 L 66.851562 118.785156 C 66.113281 118.816406 65.5 118.21875 65.507812 117.476562 L 65.554688 113.203125 C 65.558594 113.015625 65.316406 112.941406 65.214844 113.097656 L 62.757812 116.882812 C 62.445312 117.359375 61.804688 117.496094 61.324219 117.183594 L 58.472656 115.308594 C 58.304688 115.199219 58.105469 115.398438 58.21875 115.566406 L 60.667969 119.285156 C 60.921875 119.667969 60.757812 120.191406 60.328125 120.359375 L 54.277344 122.703125 C 54.082031 122.777344 54.140625 123.066406 54.34375 123.0625 L 60.351562 122.9375 C 61 122.921875 61.503906 123.488281 61.421875 124.132812 L 60.808594 128.875 C 60.785156 129.070312 61.035156 129.167969 61.144531 129.003906 C 61.914062 127.890625 63.578125 125.617188 64.398438 124.5 C 64.667969 124.136719 65.175781 124.042969 65.550781 124.292969 L 69.023438 126.570312 C 69.1875 126.675781 69.382812 126.488281 69.285156 126.320312 L 67.164062 122.695312 C 66.777344 122.039062 67.011719 121.191406 67.679688 120.824219 L 71.066406 118.957031 C 71.238281 118.859375 71.167969 118.597656 70.96875 118.605469 Z M 181.453125 102.488281 L 176.5 97.835938 C 175.605469 96.992188 175.574219 95.570312 176.445312 94.691406 L 180.855469 90.226562 C 181.078125 90 180.84375 89.625 180.542969 89.726562 L 174.226562 91.910156 C 173.09375 92.300781 171.867188 91.65625 171.542969 90.496094 L 169.660156 83.832031 C 169.578125 83.542969 169.171875 83.539062 169.085938 83.828125 L 166.996094 90.835938 C 166.730469 91.726562 165.796875 92.234375 164.910156 91.96875 L 159.621094 90.375 C 159.308594 90.28125 159.09375 90.683594 159.34375 90.894531 L 164.851562 95.535156 C 165.421875 96.015625 165.402344 96.90625 164.8125 97.359375 L 156.484375 103.796875 C 156.214844 104 156.4375 104.425781 156.757812 104.320312 L 166.03125 101.351562 C 167.027344 101.035156 168.074219 101.679688 168.238281 102.71875 L 169.457031 110.367188 C 169.503906 110.679688 169.9375 110.714844 170.035156 110.414062 C 170.722656 108.324219 172.265625 104.03125 173.03125 101.914062 C 173.28125 101.222656 174.027344 100.847656 174.726562 101.058594 L 181.160156 102.996094 C 181.464844 103.085938 181.6875 102.707031 181.453125 102.488281 Z M 48.191406 87.15625 C 43.734375 86.335938 41.859375 84.800781 40.152344 80.585938 C 39.769531 79.640625 38.402344 79.785156 38.21875 80.785156 C 37.402344 85.261719 35.875 87.148438 31.679688 88.859375 C 30.738281 89.242188 30.882812 90.617188 31.878906 90.800781 C 36.332031 91.621094 38.210938 93.15625 39.914062 97.371094 C 40.296875 98.3125 41.667969 98.175781 41.851562 97.171875 C 42.664062 92.695312 44.195312 90.808594 48.386719 89.097656 C 49.328125 88.710938 49.1875 87.335938 48.191406 87.15625 Z M 190.960938 132.09375 C 187.667969 132.527344 186.015625 131.882812 183.878906 129.324219 C 183.402344 128.753906 182.480469 129.164062 182.574219 129.902344 C 183.007812 133.210938 182.367188 134.871094 179.820312 137.015625 C 179.25 137.496094 179.65625 138.421875 180.394531 138.324219 C 183.6875 137.890625 185.339844 138.539062 187.476562 141.09375 C 187.953125 141.667969 188.875 141.257812 188.777344 140.519531 C 188.34375 137.210938 188.988281 135.550781 191.535156 133.40625 C 192.105469 132.925781 191.699219 131.996094 190.960938 132.09375 Z M 190.960938 132.09375 " fill-opacity="1" fill-rule="nonzero"/></svg>